# xmcd CD database file generated by Grip 3.2.0
# 
# Track frame offsets:
#       150
#       17012
#       40010
#       56845
#       70397
#       91160
#       108627
#       124760
#       149597
#       169947
# 
# Disc length: 2500 seconds
# 
# Revision: 5
# Processed by: cddbd v1.5.1PL0 Copyright (c) Steve Scherf et al.
# Submitted via: Grip 3.2.0
# 
DISCID=8e09c20a
DTITLE=Tom Russell - Hurricane Season
DYEAR=1991
DGENRE=Country
TTITLE0=Black Pearl
TTITLE1=Lord Of The Trains
TTITLE2=Beyond The Blues
TTITLE3=Jack Johnson
TTITLE4=Chocolate Cigarette
TTITLE5=Winnipeg
TTITLE6=The Evangeline Hotel
TTITLE7=A Dollar's Worth Of Gasoline
TTITLE8=Hurricane Season
TTITLE9=Haley's Comet
EXTD=
EXTT0=
EXTT1=
EXTT2=
EXTT3=
EXTT4=
EXTT5=
EXTT6=
EXTT7=
EXTT8=
EXTT9=
PLAYORDER=
